<?xml version="1.0" encoding="UTF-8"?>
<svg id="Layer_1" data-name="Layer 1" xmlns="http://www.w3.org/2000/svg" viewBox="0 0 737.45 685.78">
  <g id="SVGRepo_iconCarrier" data-name="SVGRepo iconCarrier">
    <path d="M342.73,116.95c-34.92,0-63.28,28.36-63.28,63.28s28.36,63.28,63.28,63.28,63.28-28.36,63.28-63.28-28.36-63.28-63.28-63.28h0ZM368.05,342.66c0-13.98-11.33-25.31-25.31-25.31s-25.31,11.33-25.31,25.31,11.33,25.31,25.31,25.31,25.31-11.33,25.31-25.31h0ZM279.45,505.16c0,34.92,28.36,63.28,63.28,63.28s63.28-28.36,63.28-63.28-28.36-63.28-63.28-63.28-63.28,28.28-63.28,63.28h0ZM441.87,342.66c0,34.92,28.36,63.28,63.28,63.28s63.28-28.36,63.28-63.28-28.36-63.28-63.28-63.28-63.28,28.36-63.28,63.28ZM116.95,342.66c0,34.92,28.36,63.28,63.28,63.28s63.28-28.36,63.28-63.28-28.36-63.28-63.28-63.28-63.28,28.36-63.28,63.28ZM715.7,638.83c-23.44-51.02-74.77-84.38-130.94-84.92-29.45-.47-57.97,8.28-82.42,24.69-.16.08-.23.16-.39.23-47.11,31.8-102.19,48.67-159.22,48.67-157.03,0-284.77-127.73-284.77-284.77S185.7,57.97,342.73,57.97s284.77,127.73,284.77,284.77c0,48.2-12.27,95.78-35.39,137.66-5.08,9.14-1.72,20.7,7.42,25.78s20.7,1.72,25.78-7.42c26.25-47.5,40.16-101.41,40.16-156.02,0-177.97-144.77-322.73-322.73-322.73S20,164.77,20,342.73s144.77,322.73,322.73,322.73c64.14,0,126.09-18.83,179.22-54.37.16-.08.39-.16.55-.31,18.28-12.58,39.69-18.83,61.95-18.91,41.48.39,79.45,25.08,96.8,62.81,3.2,6.95,10.08,11.09,17.27,11.09,2.66,0,5.31-.55,7.89-1.72,9.53-4.45,13.67-15.7,9.3-25.23Z" fill="#00C6BD" stroke="#00C6BD" stroke-miterlimit="3.12" stroke-width="40"/>
  </g>
</svg>